<svg width="159" height="28" viewBox="0 0 159 28" fill="none" xmlns="http://www.w3.org/2000/svg">
<g clip-path="url(#clip0_2953_554)">
<path d="M57.6096 5.14844H55.4085V22.3871H57.6096V5.14844Z" fill="#1428A0"/>
<path d="M45.6661 5.65967V7.44394H51.1921C51.1921 7.44394 51.5078 15.501 45.0438 17.9079L45.9261 19.6829C45.9261 19.6829 53.6254 17.6756 53.1981 5.67825H45.6754L45.6661 5.65967Z" fill="#1428A0"/>
<path d="M15.1199 8.72627H13.2252V5.14844H10.9963V14.2185H13.2252V10.5849H15.1199V8.72627Z" fill="#1428A0"/>
<path d="M2.75836 22.3871H13.2252V14.9712H2.75836V22.3871ZM4.89446 16.774H11.0799V20.5656H4.89446V16.774Z" fill="#1428A0"/>
<path d="M26.1161 14.2185H28.308V5.14844H26.079V8.72627H23.2742V10.5849H26.1161V14.2185Z" fill="#1428A0"/>
<path d="M40.9945 8.72627H38.5705V10.5849H41.0317V16.3373H43.2235V5.14844H40.9945V8.72627Z" fill="#1428A0"/>
<path d="M22.8191 14.4507C19.615 14.4507 17.0145 16.3279 17.0145 18.6511C17.0145 20.9744 19.6057 22.8516 22.8191 22.8516C26.0325 22.8516 28.6237 20.9744 28.6237 18.6511C28.6237 16.3279 26.0233 14.4507 22.8191 14.4507ZM22.8191 21.0023C20.8316 21.0023 19.2156 19.9429 19.2156 18.6511C19.2156 17.3594 20.8316 16.3093 22.8191 16.3093C24.8066 16.3093 26.4319 17.3594 26.4319 18.6511C26.4319 19.9429 24.8159 21.0023 22.8191 21.0023Z" fill="#1428A0"/>
<path d="M4.70859 9.97148C5.368 12.0717 8.27495 13.9954 8.27495 13.9954L9.4173 12.4156C5.45158 10.3897 5.73949 5.47363 5.73949 5.47363H3.67769C3.67769 5.47363 3.9656 10.3804 -0.00939941 12.4156L1.13295 13.9954C1.13295 13.9954 4.0399 12.0717 4.6993 9.97148H4.70859Z" fill="#1428A0"/>
<path d="M19.5128 9.97148C20.1722 12.0717 22.8377 13.8281 22.8377 13.8281L23.98 12.2483C20.2558 10.3804 20.5437 5.47363 20.5437 5.47363H18.4912C18.4912 5.47363 18.7791 10.3804 15.0548 12.2483L16.1972 13.8281C16.1972 13.8281 18.8627 12.0717 19.5221 9.97148H19.5128Z" fill="#1428A0"/>
<path d="M34.837 14.9619H32.7009V22.3871H33.8339H34.837H43.2235V20.547H34.837V14.9619Z" fill="#1428A0"/>
<path d="M35.1156 10.5478C35.8772 12.7038 39.072 14.423 39.072 14.423L40.1865 12.8989C36.7037 11.2076 36.3508 9.11667 36.3415 7.50897H39.4992V5.66895H30.7877V7.50897H33.8897C33.8711 9.12597 33.5182 11.2076 30.0447 12.8989L31.1592 14.423C31.1592 14.423 34.354 12.7038 35.1156 10.5478Z" fill="#1428A0"/>
<path d="M158.944 6.66295C160.096 13.2517 142.181 21.8664 118.934 25.9182C95.6879 29.9699 75.9151 27.9162 74.7727 21.3274C73.6304 14.7386 91.5457 6.12395 114.783 2.07217C138.029 -1.9796 157.793 0.0741651 158.944 6.66295Z" fill="#1428A0"/>
<path d="M137.072 16.4486L136.952 9.60889H139.106V18.2329H136.004L133.85 11.1515H133.803L133.924 18.2329H131.779V9.60889H135.02L137.017 16.4486H137.072Z" fill="white"/>
<path d="M97.8519 10.4174L96.6631 18.3258H94.3041L95.9294 9.60889H99.8023L101.409 18.3258H99.0686L97.9076 10.4174H97.8519Z" fill="white"/>
<path d="M108.022 16.272L109.09 9.60889H112.647L112.832 18.3258H110.659L110.603 10.4917H110.557L109.099 18.3258H106.889L105.43 10.4917H105.384L105.328 18.3258H103.146L103.341 9.60889H106.898L107.966 16.272H108.022Z" fill="white"/>
<path d="M90.6449 15.8631C90.7285 16.0768 90.7006 16.3463 90.6635 16.5136C90.5892 16.8017 90.3941 17.0991 89.8183 17.0991C89.2703 17.0991 88.936 16.7831 88.936 16.3092V15.4635H86.5956V16.1419C86.5956 18.0841 88.1187 18.6696 89.7626 18.6696C91.4064 18.6696 92.6324 18.1306 92.846 16.6809C92.9482 15.9282 92.8739 15.4356 92.846 15.2498C92.4745 13.4283 89.1682 12.88 88.9267 11.8578C88.8896 11.6812 88.8989 11.4954 88.9267 11.3931C88.9917 11.1143 89.1775 10.8077 89.7254 10.8077C90.2362 10.8077 90.5334 11.1236 90.5334 11.5976V12.1366H92.7067V11.5232C92.7067 9.62746 91.0071 9.33008 89.7719 9.33008C88.2209 9.33008 86.9578 9.8412 86.7256 11.263C86.6606 11.6533 86.6513 12.0065 86.7442 12.4433C87.125 14.2275 90.2177 14.7386 90.6727 15.8724L90.6449 15.8631Z" fill="white"/>
<path d="M118.971 15.8537C119.055 16.0582 119.027 16.3277 118.99 16.4949C118.916 16.783 118.721 17.0711 118.145 17.0711C117.606 17.0711 117.281 16.7551 117.281 16.2905V15.4541H114.969V16.1139C114.969 18.0376 116.482 18.623 118.098 18.623C119.714 18.623 120.94 18.0933 121.145 16.6529C121.247 15.9095 121.173 15.4169 121.145 15.2404C120.782 13.4282 117.504 12.8892 117.263 11.8856C117.225 11.709 117.235 11.5324 117.263 11.4302C117.328 11.1514 117.513 10.854 118.052 10.854C118.553 10.854 118.851 11.1607 118.851 11.6347V12.1644H121.005V11.5603C121.005 9.68312 119.315 9.38574 118.089 9.38574C116.557 9.38574 115.303 9.88757 115.071 11.3001C115.006 11.6904 115.006 12.0343 115.089 12.4617C115.461 14.2274 118.526 14.7385 118.971 15.8537Z" fill="white"/>
<path d="M126.29 17.0248C126.894 17.0248 127.089 16.6066 127.126 16.3928C127.144 16.2999 127.144 16.1698 127.144 16.0583V9.60889H129.345V15.8631C129.345 16.0211 129.336 16.3557 129.327 16.4393C129.169 18.0656 127.887 18.5953 126.281 18.5953C124.674 18.5953 123.392 18.0656 123.234 16.4393C123.234 16.3557 123.206 16.0304 123.216 15.8631V9.60889H125.417V16.0583C125.417 16.1698 125.417 16.2999 125.435 16.3928C125.482 16.6066 125.668 17.0248 126.271 17.0248H126.29Z" fill="white"/>
<path d="M144.465 16.9317C145.097 16.9317 145.32 16.5321 145.357 16.2998C145.375 16.1976 145.375 16.0768 145.375 15.9653V14.7014H144.484V13.4283H147.577V15.7701C147.577 15.9374 147.577 16.0489 147.549 16.3463C147.4 17.9354 146.026 18.5023 144.484 18.5023C142.942 18.5023 141.568 17.9354 141.419 16.3463C141.391 16.0582 141.391 15.9374 141.391 15.7701V12.0993C141.391 11.9414 141.41 11.6719 141.428 11.5232C141.623 9.89689 142.942 9.36719 144.484 9.36719C146.026 9.36719 147.382 9.8876 147.539 11.5232C147.567 11.802 147.558 12.0993 147.558 12.0993V12.3874H145.357V11.8949C145.357 11.8949 145.357 11.6905 145.329 11.5604C145.292 11.3652 145.125 10.9284 144.456 10.9284C143.787 10.9284 143.639 11.3466 143.592 11.5604C143.564 11.6719 143.555 11.8298 143.555 11.9692V15.956C143.555 16.0675 143.555 16.1883 143.574 16.2905C143.611 16.5228 143.834 16.9224 144.465 16.9224V16.9317Z" fill="white"/>
</g>
<defs>
<clipPath id="clip0_2953_554">
<rect width="159" height="28" fill="white"/>
</clipPath>
</defs>
</svg>
