<svg width="23" height="22" viewBox="0 0 23 22" fill="none" xmlns="http://www.w3.org/2000/svg">
<path fill-rule="evenodd" clip-rule="evenodd" d="M3.5 8.4C3.5 3.98172 7.08172 0.4 11.5 0.4C15.9183 0.4 19.5 3.98172 19.5 8.4V10.25H21C21.2761 10.25 21.5 10.4739 21.5 10.75V11.2997C22.3594 11.4982 23 12.2682 23 13.1879V14.3549C23 15.2661 22.357 16.027 21.5 16.2088V16.75C21.5 17.0261 21.2761 17.25 21 17.25H18.7286C18.4929 17.919 18.0312 18.4943 17.4484 18.9313C16.6931 19.4979 15.7084 19.8576 14.6346 19.9345C14.3958 20.8912 13.5307 21.6 12.5 21.6C11.285 21.6 10.3 20.615 10.3 19.4C10.3 18.185 11.285 17.2 12.5 17.2C13.4094 17.2 14.1899 17.7518 14.525 18.5388C15.3574 18.481 16.0842 18.2045 16.6084 17.8113C17.1997 17.3679 17.5 16.8087 17.5 16.25V10.4V10.25V8.4C17.5 5.08629 14.8137 2.4 11.5 2.4C8.18629 2.4 5.5 5.08629 5.5 8.4V10.25V10.4V17.25H2C1.72386 17.25 1.5 17.0261 1.5 16.75V16.1696C0.633774 15.9207 0 15.1225 0 14.1762V13.4103C0 12.4475 0.629856 11.6318 1.5 11.3528V10.75C1.5 10.4739 1.72386 10.25 2 10.25H3.5V8.4ZM12.5 18.6C12.0582 18.6 11.7 18.9582 11.7 19.4C11.7 19.8418 12.0582 20.2 12.5 20.2C12.9418 20.2 13.3 19.8418 13.3 19.4C13.3 18.9582 12.9418 18.6 12.5 18.6Z" fill="white"/>
</svg>
