<svg width="162" height="34" viewBox="0 0 162 34" fill="none" xmlns="http://www.w3.org/2000/svg">
<g clip-path="url(#clip0_2861_972)">
<path d="M3.86999 13.9154C0.509994 13.9154 -0.120006 11.9354 0.0199939 9.68535H2.73999C2.73999 10.9254 2.78999 11.9754 4.28999 11.9754C5.20999 11.9754 5.65999 11.3854 5.65999 10.4954C5.64999 8.15535 0.179994 8.00535 0.179994 4.13535C0.179994 2.10535 1.14999 0.485352 4.45999 0.485352C7.10999 0.485352 8.41999 1.67535 8.23999 4.39535H5.58999C5.58999 3.42535 5.42999 2.43535 4.32999 2.43535C3.44999 2.43535 2.92999 2.92535 2.92999 3.82535C2.92999 6.28535 8.39999 6.07535 8.39999 10.1654C8.39999 13.5354 5.92999 13.9254 3.85999 13.9254L3.86999 13.9154Z" fill="white"/>
<path d="M11.95 13.6953L12.69 10.8153H16.4L17.12 13.6953H19.98L16.45 0.695312H12.87L9.26999 13.6953H11.95ZM15.82 8.81531H13.23L14.47 3.19531H14.51L15.82 8.81531Z" fill="white"/>
<path d="M21.12 13.6953V0.695312H25.49L27.52 9.53531H27.56L29.72 0.695312H33.95V13.6953H31.3V3.67531H31.27L28.76 13.6953H26.17L23.8 3.67531H23.76V13.6953H21.12Z" fill="white"/>
<path d="M39.6 13.9151C36.23 13.9151 35.6 11.9351 35.75 9.68512H38.47C38.47 10.9251 38.52 11.9751 40.02 11.9751C40.94 11.9751 41.39 11.3851 41.39 10.4951C41.39 8.15512 35.92 8.01512 35.92 4.14512C35.92 2.10512 36.89 0.495117 40.2 0.495117C42.85 0.495117 44.16 1.68512 43.98 4.40512H41.33C41.33 3.43512 41.17 2.44512 40.07 2.44512C39.19 2.44512 38.67 2.93512 38.67 3.83512C38.67 6.29512 44.14 6.08512 44.14 10.1751C44.14 13.5451 41.67 13.9351 39.6 13.9351V13.9151Z" fill="white"/>
<path d="M54.77 0.695312V9.91531C54.77 11.8553 53.67 13.9153 50.36 13.9153C47.37 13.9153 45.93 12.3653 45.93 9.91531V0.695312H48.65V9.73531C48.65 11.3353 49.33 11.9653 50.32 11.9653C51.51 11.9653 52.05 11.1753 52.05 9.73531V0.695312H54.77Z" fill="white"/>
<path d="M56.92 13.6953V0.695312H60.59L64.05 9.69531H64.08V0.695312H66.62V13.6953H63.04L59.49 4.19531H59.45V13.6953H56.92Z" fill="white"/>
<path d="M74.76 4.69535C74.78 3.48535 74.58 2.42535 73.14 2.42535C71.45 2.42535 71.45 4.71535 71.45 7.23535C71.45 11.3054 71.85 12.0254 73.39 12.0254C73.84 12.0254 74.33 11.9154 74.74 11.7754V8.89535H73.26V6.89535H77.45V13.4854C76.71 13.6254 74.86 13.9154 73.78 13.9154C69.21 13.9154 68.69 12.0254 68.69 7.09535C68.69 3.81535 68.85 0.485352 73.3 0.485352C75.96 0.485352 77.62 1.97535 77.46 4.69535H74.76Z" fill="white"/>
<path d="M0 33.3057V20.3057H7.09V22.3057H2.72V25.5157H6.75V27.5057H2.72V31.3057H7.24V33.3057H0Z" fill="white"/>
<path d="M8.92993 33.3057V20.3057H11.6499V31.1457H15.7099V33.3057H8.92993Z" fill="white"/>
<path d="M16.8101 33.3057V20.3057H23.9001V22.3057H19.5301V25.5157H23.5601V27.5057H19.5301V31.3057H24.0501V33.3057H16.8101Z" fill="white"/>
<path d="M25.6001 26.8057C25.6001 23.3657 25.6001 20.0957 30.0801 20.0957C32.8501 20.0957 33.9701 21.6257 33.8601 24.4157H31.2001C31.2001 22.6857 30.8901 22.0357 30.0801 22.0357C28.5501 22.0357 28.3501 23.4757 28.3501 26.8057C28.3501 30.1357 28.5501 31.5757 30.0801 31.5757C31.3401 31.5757 31.2901 29.9557 31.3201 28.9257H34.0001C34.0001 32.3957 32.6101 33.5157 30.0801 33.5157C25.6001 33.5157 25.6001 30.2057 25.6001 26.8057Z" fill="white"/>
<path d="M43.3801 20.3057V22.4657H40.3601V33.3057H37.6401V22.4657H34.6101V20.3057H43.3801Z" fill="white"/>
<path d="M47.21 27.9257H47.91C50 27.9257 49.85 29.2357 49.85 30.7857C49.85 31.6357 49.78 32.5157 50.14 33.3057H52.8C52.55 32.7657 52.49 30.3157 52.49 29.4957C52.49 27.1557 50.73 27.0157 50.13 26.9357V26.8957C51.89 26.6057 52.54 25.3657 52.54 23.7057C52.54 21.4957 51.35 20.3057 49.5 20.3057H44.48V33.3057H47.2V27.9257H47.21ZM47.21 22.3057H48.42C49.28 22.3057 49.81 22.7757 49.81 24.0157C49.81 24.8457 49.5 25.9257 48.42 25.9257H47.21V22.3057Z" fill="white"/>
<path d="M58.8201 33.5157C63.3001 33.5157 63.3001 30.2057 63.3001 26.8057C63.3001 23.4057 63.3001 20.0957 58.8201 20.0957C54.3401 20.0957 54.3401 23.3757 54.3401 26.8057C54.3401 30.2357 54.3401 33.5157 58.8201 33.5157ZM58.8201 31.5757C57.2901 31.5757 57.0901 30.1357 57.0901 26.8057C57.0901 23.4757 57.2901 22.0357 58.8201 22.0357C60.3501 22.0357 60.5501 23.4757 60.5501 26.8057C60.5501 30.1357 60.3501 31.5757 58.8201 31.5757Z" fill="white"/>
<path d="M69.44 27.5254H65.03V29.3654H69.44V27.5254Z" fill="white"/>
<path d="M71.23 33.3057V20.3057H75.6L77.63 29.1457H77.67L79.83 20.3057H84.06V33.3057H81.41V23.2757H81.38L78.88 33.3057H76.28L73.91 23.2757H73.87V33.3057H71.23Z" fill="white"/>
<path d="M86.1799 33.3057V20.3057H93.2799V22.3057H88.8999V25.5157H92.9299V27.5057H88.8999V31.3057H93.4199V33.3057H86.1799Z" fill="white"/>
<path d="M94.97 26.8057C94.97 23.3657 94.97 20.0957 99.45 20.0957C102.22 20.0957 103.34 21.6257 103.23 24.4157H100.57C100.57 22.6857 100.26 22.0357 99.45 22.0357C97.92 22.0357 97.72 23.4757 97.72 26.8057C97.72 30.1357 97.92 31.5757 99.45 31.5757C100.71 31.5757 100.66 29.9557 100.69 28.9257H103.37C103.37 32.3957 101.98 33.5157 99.45 33.5157C94.97 33.5157 94.97 30.2057 94.97 26.8057Z" fill="white"/>
<path d="M110.93 25.5157V20.3057H113.65V33.3057H110.93V27.5057H107.82V33.3057H105.1V20.3057H107.82V25.5157H110.93Z" fill="white"/>
<path d="M117.61 33.3057L118.35 30.4257H122.06L122.78 33.3057H125.64L122.11 20.3057H118.53L114.93 33.3057H117.61ZM121.48 28.4257H118.89L120.13 22.8057H120.17L121.48 28.4257Z" fill="white"/>
<path d="M126.84 33.3057V20.3057H130.52L133.97 29.3057H134.01V20.3057H136.55V33.3057H132.96L129.42 23.7957H129.38V33.3057H126.84Z" fill="white"/>
<path d="M141.46 20.3057H138.74V33.3057H141.46V20.3057Z" fill="white"/>
<path d="M143.53 26.8057C143.53 23.3657 143.53 20.0957 148.01 20.0957C150.78 20.0957 151.9 21.6257 151.79 24.4157H149.13C149.13 22.6857 148.82 22.0357 148.01 22.0357C146.48 22.0357 146.28 23.4757 146.28 26.8057C146.28 30.1357 146.48 31.5757 148.01 31.5757C149.27 31.5757 149.22 29.9557 149.25 28.9257H151.93C151.93 32.3957 150.54 33.5157 148.01 33.5157C143.53 33.5157 143.53 30.2057 143.53 26.8057Z" fill="white"/>
<path d="M157.1 33.5157C153.73 33.5157 153.1 31.5357 153.25 29.2857H155.97C155.97 30.5257 156.02 31.5757 157.52 31.5757C158.44 31.5757 158.89 30.9857 158.89 30.0957C158.89 27.7557 153.42 27.6157 153.42 23.7457C153.42 21.7057 154.39 20.0957 157.7 20.0957C160.35 20.0957 161.66 21.2857 161.48 24.0057H158.83C158.83 23.0357 158.67 22.0457 157.57 22.0457C156.69 22.0457 156.17 22.5357 156.17 23.4357C156.17 25.8957 161.64 25.6857 161.64 29.7757C161.64 33.1457 159.17 33.5357 157.1 33.5357V33.5157Z" fill="white"/>
</g>
<defs>
<clipPath id="clip0_2861_972">
<rect width="161.64" height="33.03" fill="white" transform="translate(0 0.485352)"/>
</clipPath>
</defs>
</svg>
